<svg id="svg" version="1.1" xmlns="http://www.w3.org/2000/svg" xmlns:xlink="http://www.w3.org/1999/xlink" width="400" height="400" viewBox="0, 0, 400,400"><g id="svgg"><path id="path0" d="M76.000 195.100 L 76.000 316.600 96.500 316.400 L 117.000 316.200 117.101 264.100 C 117.157 235.445,117.354 212.000,117.537 212.000 C 117.721 212.000,118.080 212.675,118.333 213.500 C 118.829 215.114,121.530 224.473,122.777 228.900 C 123.010 229.725,123.380 231.030,123.600 231.800 C 123.820 232.570,124.190 233.875,124.423 234.700 C 124.655 235.525,125.005 236.740,125.200 237.400 C 125.395 238.060,125.745 239.275,125.977 240.100 C 126.210 240.925,126.580 242.230,126.800 243.000 C 127.020 243.770,127.390 245.075,127.623 245.900 C 128.136 247.724,128.025 247.337,131.807 260.400 C 134.503 269.710,135.348 272.648,136.814 277.800 C 137.001 278.460,137.355 279.720,137.600 280.600 C 137.845 281.480,138.205 282.740,138.400 283.400 C 138.595 284.060,138.945 285.275,139.177 286.100 C 139.410 286.925,139.795 288.275,140.033 289.100 C 140.271 289.925,140.562 291.097,140.679 291.705 C 140.796 292.313,141.051 292.908,141.246 293.029 C 141.441 293.149,141.600 293.678,141.600 294.205 C 141.600 294.731,141.763 295.576,141.963 296.081 C 142.163 296.587,142.689 298.260,143.132 299.800 C 143.575 301.340,144.306 303.860,144.757 305.400 C 145.208 306.940,145.952 309.550,146.409 311.200 C 146.867 312.850,147.434 314.695,147.669 315.300 L 148.097 316.400 168.649 316.400 L 189.200 316.400 189.200 194.996 L 189.200 73.593 168.500 73.696 L 147.800 73.800 147.714 122.559 C 147.666 149.376,147.556 171.516,147.468 171.759 C 147.254 172.352,146.278 170.060,145.185 166.400 C 144.692 164.750,143.976 162.410,143.593 161.200 C 143.211 159.990,142.498 157.650,142.010 156.000 C 141.522 154.350,140.848 152.190,140.514 151.200 C 140.179 150.210,139.764 148.860,139.590 148.200 C 139.304 147.108,137.556 141.380,133.119 127.000 C 132.237 124.140,131.376 121.260,131.206 120.600 C 131.036 119.940,130.452 118.050,129.909 116.400 C 129.365 114.750,128.693 112.590,128.415 111.600 C 128.137 110.610,127.770 109.440,127.600 109.000 C 127.430 108.560,127.070 107.390,126.800 106.400 C 126.530 105.410,126.170 104.240,126.000 103.800 C 125.830 103.360,125.467 102.190,125.192 101.200 C 124.917 100.210,124.372 98.410,123.980 97.200 C 123.588 95.990,122.699 93.110,122.005 90.800 C 120.643 86.268,119.518 82.605,117.799 77.100 L 116.706 73.600 96.353 73.600 L 76.000 73.600 76.000 195.100 M283.386 131.700 C 283.282 131.975,283.153 164.240,283.099 203.400 L 283.000 274.600 267.700 274.705 L 252.400 274.810 252.394 253.305 C 252.391 241.477,252.256 231.603,252.094 231.362 C 251.818 230.950,249.029 231.528,231.400 235.652 C 229.420 236.115,226.990 236.670,226.000 236.886 C 225.010 237.102,223.570 237.432,222.800 237.620 C 221.469 237.944,219.350 238.435,215.800 239.242 C 214.920 239.443,213.570 239.720,212.800 239.859 C 212.030 239.997,211.175 240.288,210.900 240.504 C 210.237 241.027,210.176 290.371,210.833 294.367 C 212.563 304.874,219.869 313.220,229.600 315.806 C 232.352 316.537,302.255 316.695,305.000 315.976 C 314.547 313.476,321.786 306.333,324.212 297.018 C 324.720 295.068,324.800 283.637,324.800 212.980 L 324.800 131.200 304.187 131.200 C 288.065 131.200,283.534 131.309,283.386 131.700 " stroke="none" fill="#fafafa" fill-rule="evenodd"></path><path id="path1" d="M31.600 200.400 L 31.600 369.200 200.400 369.200 L 369.200 369.200 369.200 200.400 L 369.200 31.600 200.400 31.600 L 31.600 31.600 31.600 200.400 M117.606 73.700 C 117.820 74.195,118.717 77.030,119.599 80.000 C 121.350 85.894,122.533 89.798,123.602 93.200 C 123.982 94.410,124.514 96.210,124.785 97.200 C 125.056 98.190,125.440 99.313,125.639 99.695 C 125.838 100.077,126.000 100.664,126.000 101.000 C 126.000 101.336,126.162 101.923,126.361 102.305 C 126.560 102.687,126.937 103.810,127.200 104.800 C 127.463 105.790,127.840 106.913,128.039 107.295 C 128.238 107.677,128.400 108.431,128.400 108.971 C 128.400 109.511,128.580 110.064,128.800 110.200 C 129.020 110.336,129.200 110.799,129.200 111.229 C 129.200 111.659,129.362 112.323,129.561 112.705 C 129.760 113.087,130.119 114.120,130.360 115.000 C 130.601 115.880,131.329 118.310,131.978 120.400 C 132.627 122.490,133.816 126.360,134.619 129.000 C 135.423 131.640,136.603 135.510,137.243 137.600 C 137.883 139.690,138.790 142.660,139.259 144.200 C 139.727 145.740,140.446 148.002,140.855 149.227 C 141.265 150.451,141.600 151.836,141.600 152.303 C 141.600 152.770,141.780 153.264,142.000 153.400 C 142.220 153.536,142.400 153.999,142.400 154.429 C 142.400 154.859,142.562 155.523,142.761 155.905 C 142.960 156.287,143.340 157.410,143.607 158.400 C 143.873 159.390,144.226 160.560,144.390 161.000 C 144.719 161.879,145.226 163.567,146.057 166.543 C 146.525 168.217,146.628 161.865,146.800 120.743 L 147.000 73.000 168.400 73.000 L 189.800 73.000 189.800 195.200 L 189.800 317.400 169.036 317.504 C 146.634 317.615,146.800 317.630,146.800 315.557 C 146.800 315.161,146.643 314.424,146.451 313.919 C 146.103 313.001,145.744 311.790,144.815 308.400 C 144.544 307.410,144.160 306.287,143.961 305.905 C 143.762 305.523,143.600 304.769,143.600 304.229 C 143.600 303.689,143.420 303.136,143.200 303.000 C 142.980 302.864,142.800 302.234,142.800 301.600 C 142.800 300.966,142.620 300.336,142.400 300.200 C 142.180 300.064,142.000 299.434,142.000 298.800 C 142.000 298.166,141.820 297.536,141.600 297.400 C 141.380 297.264,141.200 296.634,141.200 296.000 C 141.200 295.366,141.041 294.749,140.846 294.629 C 140.651 294.508,140.396 293.913,140.279 293.305 C 140.162 292.697,139.881 291.570,139.655 290.800 C 139.430 290.030,139.055 288.725,138.823 287.900 C 138.590 287.075,138.230 285.815,138.023 285.100 C 137.815 284.385,137.445 283.080,137.200 282.200 C 136.955 281.320,136.599 280.060,136.408 279.400 C 131.455 262.283,129.094 254.006,128.936 253.200 C 128.828 252.650,128.598 251.840,128.425 251.400 C 127.720 249.605,127.200 247.694,127.200 246.895 C 127.200 246.429,127.020 245.936,126.800 245.800 C 126.580 245.664,126.400 245.034,126.400 244.400 C 126.400 243.766,126.220 243.136,126.000 243.000 C 125.780 242.864,125.600 242.324,125.600 241.800 C 125.600 241.276,125.420 240.736,125.200 240.600 C 124.980 240.464,124.800 239.971,124.800 239.505 C 124.800 238.604,124.135 236.261,123.551 235.105 C 123.358 234.723,123.200 234.057,123.200 233.624 C 123.200 233.192,123.039 232.424,122.842 231.919 C 122.645 231.413,122.263 230.190,121.994 229.200 C 121.726 228.210,121.408 227.130,121.288 226.800 C 120.944 225.855,119.625 221.252,118.879 218.400 C 118.229 215.909,118.196 217.921,118.098 266.161 C 118.025 302.571,117.873 316.671,117.549 317.061 C 117.083 317.623,76.864 317.906,75.433 317.357 C 74.772 317.104,74.407 73.726,75.067 73.067 C 75.213 72.920,84.757 72.800,96.275 72.800 L 117.217 72.800 117.606 73.700 M325.553 130.943 C 326.164 131.679,325.928 292.356,325.312 295.600 C 323.472 305.284,316.890 312.739,307.000 316.343 C 304.089 317.403,297.929 317.600,267.600 317.600 C 231.741 317.600,230.663 317.537,225.202 315.105 C 219.124 312.398,212.993 305.592,211.235 299.600 C 210.944 298.610,210.548 297.278,210.353 296.640 C 210.159 296.002,210.000 282.936,210.000 267.604 L 210.000 239.728 212.300 239.221 C 213.565 238.942,215.050 238.576,215.600 238.407 C 216.150 238.238,217.590 237.888,218.800 237.630 C 222.141 236.918,224.453 236.388,226.000 235.981 C 227.250 235.653,243.257 231.963,246.800 231.187 C 250.979 230.272,252.520 230.027,252.842 230.226 C 253.046 230.352,253.200 239.843,253.200 252.224 L 253.200 274.000 267.800 274.000 L 282.400 274.000 282.400 202.833 C 282.400 163.691,282.509 131.381,282.643 131.033 C 282.983 130.146,324.819 130.059,325.553 130.943 " stroke="none" fill="#1b5b1b" fill-rule="evenodd"></path><path id="path2" d="M75.385 73.700 C 75.281 73.975,75.241 128.740,75.298 195.400 L 75.400 316.600 75.600 194.900 C 75.710 127.965,75.749 73.200,75.687 73.200 C 75.626 73.200,75.489 73.425,75.385 73.700 M147.385 73.700 C 147.280 73.975,147.240 95.710,147.297 122.000 L 147.400 169.800 147.600 121.500 C 147.710 94.935,147.749 73.200,147.687 73.200 C 147.626 73.200,147.489 73.425,147.385 73.700 M294.100 131.100 C 299.765 131.162,309.035 131.162,314.700 131.100 C 320.365 131.037,315.730 130.986,304.400 130.986 C 293.070 130.986,288.435 131.037,294.100 131.100 M252.586 252.600 C 252.587 264.480,252.638 269.282,252.700 263.272 C 252.762 257.261,252.762 247.541,252.700 241.672 C 252.637 235.802,252.586 240.720,252.586 252.600 M210.189 266.400 C 210.189 280.590,210.239 286.395,210.300 279.300 C 210.361 272.205,210.361 260.595,210.300 253.500 C 210.239 246.405,210.189 252.210,210.189 266.400 M86.528 317.100 C 92.208 317.162,101.388 317.162,106.928 317.100 C 112.468 317.037,107.820 316.986,96.600 316.986 C 85.380 316.986,80.848 317.037,86.528 317.100 M158.128 317.100 C 163.808 317.162,172.988 317.162,178.528 317.100 C 184.068 317.037,179.420 316.986,168.200 316.986 C 156.980 316.986,152.448 317.037,158.128 317.100 M251.300 317.100 C 260.265 317.160,274.935 317.160,283.900 317.100 C 292.865 317.040,285.530 316.991,267.600 316.991 C 249.670 316.991,242.335 317.040,251.300 317.100 " stroke="none" fill="#84a484" fill-rule="evenodd"></path><path id="path3" d="M189.600 194.920 L 189.800 316.600 189.901 195.221 C 189.956 128.462,189.866 73.706,189.701 73.541 C 189.535 73.375,189.490 127.996,189.600 194.920 M325.396 211.800 C 325.396 256.020,325.443 274.169,325.500 252.132 C 325.557 230.094,325.557 193.914,325.500 171.732 C 325.443 149.549,325.396 167.580,325.396 211.800 M117.296 265.100 C 117.349 293.425,117.438 308.320,117.496 298.200 C 117.769 249.619,117.771 213.600,117.500 213.600 C 117.335 213.600,117.243 236.775,117.296 265.100 M217.800 309.600 C 218.659 310.480,219.452 311.200,219.562 311.200 C 219.672 311.200,219.059 310.480,218.200 309.600 C 217.341 308.720,216.548 308.000,216.438 308.000 C 216.328 308.000,216.941 308.720,217.800 309.600 " stroke="none" fill="#6a8e69" fill-rule="evenodd"></path><path id="path4" d="M75.785 73.700 C 75.681 73.975,75.642 128.830,75.698 195.600 L 75.801 317.000 75.901 195.304 L 76.000 73.607 96.300 73.500 L 116.600 73.393 96.287 73.296 C 80.334 73.221,75.934 73.307,75.785 73.700 M147.862 73.500 C 147.693 73.773,162.552 73.768,181.600 73.489 C 185.670 73.430,179.786 73.340,168.524 73.291 C 157.262 73.241,147.964 73.335,147.862 73.500 M189.200 195.000 L 189.200 316.400 168.627 316.400 C 148.156 316.400,148.053 316.396,147.790 315.570 C 147.646 315.113,147.439 314.828,147.331 314.936 C 147.223 315.043,147.336 315.507,147.582 315.966 C 148.025 316.795,148.153 316.800,168.814 316.800 L 189.600 316.800 189.600 195.200 C 189.600 128.320,189.510 73.600,189.400 73.600 C 189.290 73.600,189.200 128.230,189.200 195.000 M118.856 80.400 C 118.856 80.730,119.011 81.360,119.200 81.800 C 119.417 82.304,119.544 82.378,119.544 82.000 C 119.544 81.670,119.389 81.040,119.200 80.600 C 118.983 80.096,118.856 80.022,118.856 80.400 M121.448 89.000 C 121.591 89.660,121.866 90.470,122.059 90.800 C 122.284 91.184,122.318 90.968,122.152 90.200 C 122.009 89.540,121.734 88.730,121.541 88.400 C 121.316 88.016,121.282 88.232,121.448 89.000 M128.806 113.033 C 128.809 113.455,128.995 114.070,129.218 114.400 C 129.515 114.838,129.552 114.676,129.356 113.800 C 129.027 112.329,128.798 112.010,128.806 113.033 M132.856 126.000 C 132.856 126.330,133.011 126.960,133.200 127.400 C 133.417 127.904,133.544 127.978,133.544 127.600 C 133.544 127.270,133.389 126.640,133.200 126.200 C 132.983 125.696,132.856 125.622,132.856 126.000 M282.987 131.700 C 282.669 132.544,282.580 274.780,282.898 274.462 C 283.166 274.194,283.555 131.200,283.287 131.200 C 283.226 131.200,283.090 131.425,282.987 131.700 M324.996 212.600 C 324.996 257.480,325.043 275.781,325.100 253.268 C 325.157 230.756,325.157 194.036,325.100 171.668 C 325.043 149.301,324.996 167.720,324.996 212.600 M146.032 169.120 C 145.981 169.960,147.308 172.262,147.506 171.677 C 147.603 171.389,147.417 170.849,147.093 170.477 C 146.769 170.105,146.405 169.530,146.284 169.200 C 146.136 168.798,146.053 168.771,146.032 169.120 M117.200 212.600 C 117.200 212.930,117.360 213.200,117.557 213.200 C 117.753 213.200,118.032 213.671,118.176 214.247 C 118.321 214.823,118.537 215.197,118.656 215.077 C 118.950 214.783,117.922 212.000,117.520 212.000 C 117.344 212.000,117.200 212.270,117.200 212.600 M251.000 230.858 C 250.252 231.193,250.257 231.206,251.081 231.051 C 251.565 230.960,252.046 231.091,252.149 231.342 C 252.285 231.673,252.346 231.668,252.368 231.324 C 252.415 230.625,251.907 230.452,251.000 230.858 M247.400 231.600 C 246.381 232.038,247.432 232.038,248.800 231.600 C 249.604 231.343,249.643 231.277,249.000 231.268 C 248.560 231.262,247.840 231.411,247.400 231.600 M240.600 233.200 C 239.581 233.638,240.632 233.638,242.000 233.200 C 242.804 232.943,242.843 232.877,242.200 232.868 C 241.760 232.862,241.040 233.011,240.600 233.200 M237.000 234.000 C 235.981 234.438,237.032 234.438,238.400 234.000 C 239.204 233.743,239.243 233.677,238.600 233.668 C 238.160 233.662,237.440 233.811,237.000 234.000 M233.800 234.800 C 233.296 235.017,233.222 235.144,233.600 235.144 C 233.930 235.144,234.560 234.989,235.000 234.800 C 235.504 234.583,235.578 234.456,235.200 234.456 C 234.870 234.456,234.240 234.611,233.800 234.800 M124.644 236.600 C 124.973 238.071,125.202 238.390,125.194 237.367 C 125.191 236.945,125.005 236.330,124.782 236.000 C 124.485 235.562,124.448 235.724,124.644 236.600 M226.800 236.400 C 225.996 236.657,225.957 236.723,226.600 236.732 C 227.040 236.738,227.760 236.589,228.200 236.400 C 229.219 235.962,228.168 235.962,226.800 236.400 M223.400 237.200 C 222.896 237.417,222.822 237.544,223.200 237.544 C 223.530 237.544,224.160 237.389,224.600 237.200 C 225.104 236.983,225.178 236.856,224.800 236.856 C 224.470 236.856,223.840 237.011,223.400 237.200 M219.800 238.000 L 219.000 238.344 219.800 238.366 C 220.240 238.378,220.870 238.213,221.200 238.000 C 221.995 237.486,220.996 237.486,219.800 238.000 M216.600 238.800 C 216.096 239.017,216.022 239.144,216.400 239.144 C 216.730 239.144,217.360 238.989,217.800 238.800 C 218.304 238.583,218.378 238.456,218.000 238.456 C 217.670 238.456,217.040 238.611,216.600 238.800 M212.800 239.600 C 211.996 239.857,211.957 239.923,212.600 239.932 C 213.040 239.938,213.760 239.789,214.200 239.600 C 215.219 239.162,214.168 239.162,212.800 239.600 M129.606 253.833 C 129.609 254.255,129.795 254.870,130.018 255.200 C 130.315 255.638,130.352 255.476,130.156 254.600 C 129.827 253.129,129.598 252.810,129.606 253.833 M135.256 273.200 C 135.256 273.530,135.411 274.160,135.600 274.600 C 135.817 275.104,135.944 275.178,135.944 274.800 C 135.944 274.470,135.789 273.840,135.600 273.400 C 135.383 272.896,135.256 272.822,135.256 273.200 M140.828 293.076 C 140.918 294.115,141.544 294.996,141.572 294.124 C 141.587 293.642,141.420 293.136,141.200 293.000 C 140.980 292.864,140.813 292.898,140.828 293.076 M211.433 298.601 C 211.793 300.049,212.747 302.400,212.975 302.400 C 213.166 302.400,211.623 297.898,211.331 297.601 C 211.223 297.491,211.269 297.941,211.433 298.601 M321.623 303.439 C 321.099 304.426,319.980 306.019,319.135 306.979 C 318.291 307.938,317.600 308.841,317.600 308.986 C 317.600 309.130,318.316 308.421,319.192 307.409 C 320.860 305.482,323.012 302.079,322.737 301.803 C 322.648 301.715,322.147 302.451,321.623 303.439 M213.200 302.961 C 213.200 303.378,215.523 306.705,216.034 307.021 C 216.358 307.221,214.865 304.915,213.323 302.833 C 213.256 302.742,213.200 302.799,213.200 302.961 M145.044 307.400 C 145.373 308.871,145.602 309.190,145.594 308.167 C 145.591 307.745,145.405 307.130,145.182 306.800 C 144.885 306.362,144.848 306.524,145.044 307.400 M218.086 309.401 C 219.123 310.479,220.033 311.280,220.107 311.181 C 220.181 311.081,219.333 310.199,218.221 309.220 L 216.200 307.440 218.086 309.401 M223.200 313.396 C 223.200 313.670,225.649 314.884,225.832 314.701 C 225.919 314.614,225.362 314.244,224.595 313.878 C 223.828 313.512,223.200 313.295,223.200 313.396 M229.200 315.982 C 229.530 316.205,230.145 316.391,230.567 316.394 C 231.590 316.402,231.271 316.173,229.800 315.844 C 228.924 315.648,228.762 315.685,229.200 315.982 M304.800 316.000 C 303.976 316.264,303.941 316.326,304.600 316.354 C 305.040 316.373,305.670 316.213,306.000 316.000 C 306.701 315.547,306.214 315.547,304.800 316.000 M96.600 316.400 L 76.200 316.611 96.700 316.706 C 110.163 316.768,117.200 316.663,117.200 316.400 C 117.200 316.180,117.155 316.043,117.100 316.094 C 117.045 316.146,107.820 316.284,96.600 316.400 M249.730 316.700 C 259.592 316.760,275.612 316.759,285.330 316.700 C 295.049 316.640,286.980 316.591,267.400 316.592 C 247.820 316.592,239.869 316.640,249.730 316.700 " stroke="none" fill="#94ac94" fill-rule="evenodd"></path><path id="path5" d="M304.000 130.795 L 325.400 131.000 325.400 212.462 C 325.400 257.266,325.532 293.716,325.694 293.462 C 326.234 292.612,326.062 131.422,325.520 130.880 C 325.156 130.516,319.898 130.423,303.820 130.495 L 282.600 130.589 304.000 130.795 M282.596 202.600 C 282.596 241.980,282.643 258.031,282.700 238.268 C 282.757 218.506,282.757 186.286,282.700 166.668 C 282.643 147.051,282.596 163.220,282.596 202.600 M117.502 265.835 L 117.400 317.000 96.400 317.205 L 75.400 317.411 96.251 317.505 C 113.305 317.583,117.183 317.502,117.548 317.063 C 118.001 316.517,118.258 215.324,117.808 214.874 C 117.695 214.762,117.557 237.694,117.502 265.835 M252.075 230.248 C 252.447 230.358,252.842 230.753,252.952 231.125 C 253.099 231.614,253.132 231.581,253.072 231.005 C 253.025 230.538,252.662 230.175,252.195 230.128 C 251.619 230.068,251.586 230.101,252.075 230.248 M252.920 240.800 C 252.920 242.010,252.995 242.505,253.087 241.900 C 253.178 241.295,253.178 240.305,253.087 239.700 C 252.995 239.095,252.920 239.590,252.920 240.800 M252.928 250.400 C 252.928 251.830,253.001 252.415,253.089 251.700 C 253.178 250.985,253.178 249.815,253.089 249.100 C 253.001 248.385,252.928 248.970,252.928 250.400 M168.800 317.200 L 147.800 317.411 168.676 317.505 C 182.266 317.567,189.639 317.460,189.800 317.200 C 189.936 316.980,189.992 316.843,189.924 316.895 C 189.856 316.947,180.350 317.084,168.800 317.200 M251.100 317.500 C 260.175 317.560,275.025 317.560,284.100 317.500 C 293.175 317.440,285.750 317.391,267.600 317.391 C 249.450 317.391,242.025 317.440,251.100 317.500 " stroke="none" fill="#437343" fill-rule="evenodd"></path><path id="path6" d="M260.526 274.700 C 264.666 274.765,271.326 274.765,275.326 274.699 C 279.327 274.634,275.940 274.581,267.800 274.581 C 259.660 274.581,256.387 274.634,260.526 274.700 " stroke="none" fill="#8ca48c" fill-rule="evenodd"></path><path id="path7" d="M86.128 73.100 C 91.808 73.162,100.988 73.162,106.528 73.100 C 112.068 73.037,107.420 72.986,96.200 72.986 C 84.980 72.986,80.448 73.037,86.128 73.100 M158.100 73.100 C 163.765 73.162,173.035 73.162,178.700 73.100 C 184.365 73.037,179.730 72.986,168.400 72.986 C 157.070 72.986,152.435 73.037,158.100 73.100 M146.993 120.200 C 146.993 145.940,147.041 156.411,147.100 143.469 C 147.159 130.527,147.158 109.467,147.100 96.669 C 147.041 83.871,146.993 94.460,146.993 120.200 M74.997 195.000 C 74.997 261.660,75.044 288.870,75.100 255.468 C 75.156 222.065,75.156 167.525,75.100 134.268 C 75.044 101.010,74.997 128.340,74.997 195.000 M252.944 235.200 C 252.944 237.290,253.012 238.145,253.094 237.100 C 253.176 236.055,253.176 234.345,253.094 233.300 C 253.012 232.255,252.944 233.110,252.944 235.200 M252.931 245.400 C 252.933 246.940,253.005 247.521,253.092 246.691 C 253.179 245.861,253.177 244.601,253.089 243.891 C 253.000 243.181,252.929 243.860,252.931 245.400 M252.924 255.000 C 252.926 256.320,253.001 256.812,253.090 256.093 C 253.179 255.374,253.177 254.294,253.086 253.693 C 252.995 253.092,252.922 253.680,252.924 255.000 M252.964 266.600 C 252.963 270.340,253.023 271.924,253.097 270.120 C 253.171 268.315,253.172 265.255,253.098 263.320 C 253.025 261.384,252.964 262.860,252.964 266.600 M261.126 274.300 C 265.155 274.365,271.635 274.365,275.526 274.299 C 279.417 274.234,276.120 274.180,268.200 274.181 C 260.280 274.181,257.097 274.234,261.126 274.300 " stroke="none" fill="#4c7c4c" fill-rule="evenodd"></path><path id="path8" d="" stroke="none" fill="#547e56" fill-rule="evenodd"></path></g></svg>